PathFileType  4	(X/Y/Z) C:\Users\15086\Documents\NMBL_Research\NordBoard_Files\K_Nord_Zeroed\
DataRate	CameraRate	NumFrames	NumMarkers	Units	OrigDataRate	OrigDataStartFrame	OrigNumFrames
  200.0		  200.0		   8		     52		 mm	  200.0	      240	   1912
Frame#	Time	C7			R_Shoulder			L_Shoulder			Sternum			R_humerus			R_elbow_med			R_elbow_lat			R_forearm			R_wrist_radius			R_wrist_ulna			L_humerus			L_elbow_med			L_elbow_lat			L_forearm			L_wrist_radius			L_wrist_ulna			r.ASIS			r.PSIS			r_IC			L.ASIS			L.PSIS			l_IC			r_thigh1			r_thigh2			r_thigh3			r_thigh4			r_thigh5			r_knee			r_mknee			r_shank_antsup			r_sh2			r_sh3			r_sh4			r_ankle			r_mankle			r_calc			r_5meta			r_toe			L_thigh1			L_thigh2			L_thigh3			L_thigh4			L_knee			L_mknee			L_shank_antsup			L_sh2			L_sh3			L_ankle			L_mankle			L_calc			L_5meta			L_toe			
		X1	Y1	Z1	X2	Y2	Z2	X3	Y3	Z3	X4	Y4	Z4	X5	Y5	Z5	X6	Y6	Z6	X7	Y7	Z7	X8	Y8	Z8	X9	Y9	Z9	X10	Y10	Z10	X11	Y11	Z11	X12	Y12	Z12	X13	Y13	Z13	X14	Y14	Z14	X15	Y15	Z15	X16	Y16	Z16	X17	Y17	Z17	X18	Y18	Z18	X19	Y19	Z19	X20	Y20	Z20	X21	Y21	Z21	X22	Y22	Z22	X23	Y23	Z23	X24	Y24	Z24	X25	Y25	Z25	X26	Y26	Z26	X27	Y27	Z27	X28	Y28	Z28	X29	Y29	Z29	X30	Y30	Z30	X31	Y31	Z31	X32	Y32	Z32	X33	Y33	Z33	X34	Y34	Z34	X35	Y35	Z35	X36	Y36	Z36	X37	Y37	Z37	X38	Y38	Z38	X39	Y39	Z39	X40	Y40	Z40	X41	Y41	Z41	X42	Y42	Z42	X43	Y43	Z43	X44	Y44	Z44	X45	Y45	Z45	X46	Y46	Z46	X47	Y47	Z47	X48	Y48	Z48	X49	Y49	Z49	X50	Y50	Z50	X51	Y51	Z51	X52	Y52	Z52	

240	1.19500	1238.458	1267.115	-471.829	1355.383	1269.439	-522.556	1103.080	1275.442	-499.961	1222.260	1203.601	-591.726	1519.738	1237.333	-462.946	1651.386	1170.890	-504.339	1637.209	1214.755	-432.775	1632.593	1316.157	-506.125	1581.577	1370.486	-614.336	1641.065	1397.695	-586.666	948.611	1235.720	-415.362	791.309	1190.997	-459.874	816.584	1246.649	-394.201	842.991	1327.319	-453.883	860.895	1405.444	-550.963	930.393	1379.900	-542.245	1346.766	734.988	-490.239	1315.246	869.121	-349.735	1394.055	840.931	-445.383	1119.462	729.945	-463.641	1201.244	871.241	-336.310	1089.466	835.427	-440.775	1365.927	502.022	-440.925	1357.745	387.035	-412.699	1397.259	367.969	-375.475	1424.873	522.081	-351.957	1413.973	408.887	-324.104	1396.850	306.963	-306.892	1272.155	309.335	-294.726	1418.547	308.758	-200.719	1423.734	316.389	-78.683	1420.708	386.204	-202.555	1408.398	396.142	-86.202	1418.836	359.496	82.507	1342.660	334.267	81.171	1350.759	428.225	87.190	1420.839	293.726	202.243	1384.285	243.757	186.159	1042.593	546.698	-378.279	1031.078	411.597	-341.494	1052.725	580.996	-264.492	1061.876	445.284	-233.512	1032.877	337.121	-259.214	1161.035	309.903	-262.377	1025.745	320.584	-162.258	1041.804	408.768	-168.930	1049.220	407.765	-48.170	1083.950	374.276	114.887	1157.939	344.724	105.604	1128.806	431.693	120.540	1106.696	290.657	245.103	1139.151	248.735	216.995
241	1.20000	1238.585	1267.129	-471.716	1355.353	1269.352	-522.831	1103.123	1275.346	-500.189	1222.270	1203.497	-591.962	1519.697	1237.294	-463.260	1651.400	1170.815	-504.648	1637.218	1214.728	-433.076	1632.621	1316.087	-506.253	1581.540	1370.609	-614.945	1641.083	1397.608	-587.016	948.648	1235.647	-415.551	791.352	1190.906	-460.003	816.709	1246.676	-394.229	843.039	1327.182	-454.044	860.856	1405.330	-551.171	930.353	1379.782	-542.448	1346.808	734.911	-490.341	1315.269	869.099	-349.853	1394.059	840.838	-445.533	1119.232	730.291	-464.116	1201.282	871.197	-336.455	1089.493	835.344	-440.886	1365.957	501.967	-440.928	1358.218	387.411	-412.459	1397.299	367.937	-375.474	1424.883	522.069	-351.938	1413.969	408.850	-324.126	1396.844	306.919	-306.905	1272.145	309.362	-294.707	1417.773	308.226	-201.228	1423.694	316.353	-78.705	1420.721	386.193	-202.568	1408.399	396.202	-86.194	1418.889	359.417	82.520	1342.704	334.201	81.199	1350.831	428.215	87.108	1420.845	293.686	202.281	1384.198	243.458	186.258	1042.569	546.653	-378.280	1031.117	411.532	-341.371	1052.721	581.045	-264.520	1061.937	445.360	-233.437	1032.873	337.085	-259.208	1161.025	309.900	-262.368	1025.749	320.596	-162.183	1041.770	408.736	-168.914	1049.193	407.728	-48.151	1083.949	374.318	114.965	1157.962	344.692	105.601	1128.811	431.660	120.541	1106.764	290.600	245.111	1139.770	249.178	216.752
242	1.20500	1238.470	1266.883	-472.372	1355.330	1269.242	-523.138	1103.130	1275.268	-500.429	1222.284	1203.395	-592.180	1519.704	1237.219	-463.540	1651.425	1170.723	-504.888	1637.248	1214.675	-433.359	1632.663	1316.044	-506.586	1581.494	1370.511	-615.305	1641.106	1397.449	-587.398	948.717	1235.509	-415.718	791.309	1190.816	-460.149	816.730	1246.759	-394.243	843.068	1327.061	-454.189	860.804	1405.230	-551.377	930.354	1379.641	-542.684	1346.808	734.827	-490.446	1315.350	869.015	-349.981	1394.108	840.782	-445.654	1119.449	729.796	-463.822	1201.326	871.143	-336.563	1089.524	835.316	-441.004	1365.986	501.922	-440.976	1357.915	386.911	-412.952	1397.319	367.881	-375.465	1424.883	522.053	-351.997	1413.990	408.795	-324.169	1396.887	306.850	-306.933	1272.151	309.374	-294.716	1418.556	308.659	-200.736	1423.708	316.317	-78.741	1420.755	386.179	-202.597	1408.361	396.059	-86.188	1418.880	359.460	82.460	1342.657	334.267	81.162	1350.959	428.169	87.074	1420.911	293.668	202.358	1383.367	242.601	186.670	1042.609	546.638	-378.295	1031.091	411.566	-341.394	1052.747	581.044	-264.543	1061.896	445.361	-233.434	1032.849	337.110	-259.176	1161.041	309.897	-262.387	1025.763	320.602	-162.153	1041.778	408.716	-168.894	1049.211	407.670	-48.129	1083.965	374.269	114.920	1158.007	344.653	105.606	1128.860	431.662	120.556	1106.800	290.684	245.140	1139.835	249.136	216.756
243	1.21000	1238.499	1266.755	-472.617	1355.345	1269.112	-523.405	1103.154	1275.160	-500.658	1222.328	1203.312	-592.397	1519.744	1237.104	-463.822	1651.438	1170.608	-505.136	1637.257	1214.582	-433.615	1632.718	1315.911	-506.925	1581.585	1370.316	-615.412	1641.099	1397.331	-587.742	948.771	1235.380	-415.893	791.298	1190.742	-460.291	816.780	1246.669	-394.389	843.189	1326.852	-454.349	860.783	1405.151	-551.601	930.335	1379.527	-542.890	1346.886	734.714	-490.532	1315.406	868.917	-350.101	1394.133	840.682	-445.785	1119.288	730.173	-464.258	1201.420	871.048	-336.685	1089.218	834.909	-441.232	1366.077	501.885	-441.043	1358.235	387.183	-412.561	1397.349	367.839	-375.486	1424.910	522.057	-352.038	1414.036	408.751	-324.163	1396.944	306.718	-306.947	1272.153	309.386	-294.726	1418.565	308.603	-200.770	1423.721	316.235	-78.761	1420.779	386.113	-202.651	1408.473	396.127	-86.264	1418.968	359.257	82.456	1342.623	334.302	81.144	1350.997	428.110	87.080	1420.963	293.527	202.360	1383.412	242.424	186.671	1042.594	546.641	-378.337	1031.106	411.556	-341.411	1052.816	581.048	-264.594	1061.993	445.365	-233.491	1032.894	337.110	-259.180	1161.021	309.919	-262.352	1025.787	320.591	-162.158	1041.771	408.694	-168.886	1049.220	407.593	-48.120	1084.011	374.326	114.964	1158.059	344.611	105.605	1128.926	431.664	120.564	1106.851	290.633	245.134	1139.890	249.269	216.802
244	1.21500	1238.674	1266.755	-472.516	1355.258	1268.928	-523.755	1103.198	1274.776	-501.001	1222.362	1203.172	-592.614	1519.787	1236.960	-464.106	1651.541	1170.373	-505.373	1637.299	1214.436	-433.913	1632.756	1315.794	-507.233	1581.475	1370.350	-616.043	1641.167	1397.086	-588.093	948.822	1235.259	-416.131	791.345	1190.649	-460.475	816.862	1246.562	-394.531	843.352	1327.073	-454.145	860.754	1405.078	-551.756	930.343	1379.390	-543.082	1346.940	734.597	-490.621	1315.499	868.834	-350.265	1394.153	840.590	-445.914	1119.297	730.122	-464.350	1201.521	870.985	-336.816	1089.250	834.879	-441.343	1366.180	501.722	-441.078	1358.243	386.978	-412.781	1397.403	367.731	-375.497	1424.927	522.050	-352.093	1414.073	408.691	-324.186	1397.045	306.525	-306.940	1272.167	309.386	-294.745	1418.563	308.518	-200.790	1423.767	316.193	-78.808	1420.830	386.061	-202.675	1408.456	396.045	-86.284	1419.032	359.142	82.407	1342.629	334.416	81.120	1351.170	428.057	87.008	1420.958	293.419	202.269	1383.360	242.204	186.462	1042.614	546.608	-378.356	1031.066	411.580	-341.429	1052.825	581.047	-264.649	1061.940	445.373	-233.492	1032.848	337.184	-259.156	1161.041	309.930	-262.375	1025.791	320.593	-162.134	1041.842	408.693	-168.831	1049.283	407.557	-48.062	1084.022	374.330	114.946	1158.098	344.536	105.590	1128.998	431.661	120.569	1106.864	290.736	245.164	1139.925	249.300	216.791
245	1.22000	1238.525	1266.431	-473.231	1355.275	1268.764	-523.998	1103.322	1274.555	-501.274	1222.416	1203.049	-592.848	1519.823	1236.815	-464.408	1651.606	1170.175	-505.578	1637.311	1214.302	-434.202	1632.890	1315.733	-507.512	1581.468	1370.268	-616.397	1641.183	1396.887	-588.424	948.918	1235.086	-416.344	791.385	1190.553	-460.637	816.922	1246.450	-394.661	843.683	1326.641	-454.392	860.758	1405.001	-551.915	930.336	1379.264	-543.238	1346.999	734.474	-490.713	1315.573	868.684	-350.424	1394.253	840.432	-446.091	1119.542	729.591	-464.075	1201.662	870.827	-336.932	1089.631	835.157	-441.397	1366.208	501.615	-441.151	1358.446	386.988	-412.611	1397.460	367.649	-375.520	1424.943	522.043	-352.111	1414.114	408.614	-324.208	1397.161	306.362	-306.984	1272.148	309.396	-294.772	1417.929	307.918	-201.298	1423.802	316.128	-78.822	1420.871	386.022	-202.715	1408.630	396.123	-86.297	1419.131	358.950	82.396	1342.618	334.427	81.098	1351.252	428.010	86.989	1421.050	293.298	202.367	1383.599	241.974	186.700	1042.603	546.613	-378.393	1031.108	411.556	-341.385	1052.846	581.102	-264.642	1062.014	445.439	-233.452	1032.879	337.152	-259.152	1161.041	309.937	-262.401	1025.776	320.600	-162.123	1041.882	408.661	-168.841	1049.327	407.496	-48.070	1084.052	374.377	114.969	1158.165	344.488	105.597	1129.054	431.616	120.548	1106.925	290.735	245.151	1139.921	249.375	216.793
246	1.22500	1238.522	1266.308	-473.841	1355.313	1268.584	-524.301	1103.432	1274.369	-501.514	1222.494	1202.898	-593.062	1519.875	1236.653	-464.697	1651.708	1169.974	-505.824	1636.813	1213.432	-433.654	1632.917	1315.582	-507.806	1581.450	1370.201	-616.676	1641.241	1396.662	-588.776	949.018	1234.914	-416.564	791.430	1190.458	-460.775	816.990	1246.338	-394.805	843.737	1326.516	-454.576	860.735	1404.911	-552.072	930.348	1379.142	-543.418	1347.091	734.310	-490.798	1315.673	868.514	-350.560	1394.322	840.277	-446.238	1119.596	729.586	-464.162	1201.802	870.729	-337.076	1089.512	834.489	-441.396	1366.285	501.550	-441.189	1358.721	386.960	-412.719	1397.482	367.593	-375.551	1424.982	522.024	-352.228	1414.131	408.562	-324.255	1397.239	306.137	-306.973	1272.174	309.403	-294.793	1417.972	307.820	-201.319	1423.838	316.076	-78.825	1420.914	385.979	-202.712	1408.621	396.057	-86.266	1419.190	358.832	82.332	1342.569	334.568	81.074	1351.517	427.814	86.964	1421.094	293.132	202.205	1383.681	241.574	186.600	1042.613	546.563	-378.445	1031.096	411.575	-341.378	1052.860	581.055	-264.707	1061.996	445.391	-233.507	1032.893	337.249	-259.135	1161.055	309.963	-262.404	1025.791	320.589	-162.126	1041.928	408.652	-168.808	1049.363	407.444	-48.034	1084.050	374.382	114.959	1158.199	344.453	105.593	1129.147	431.645	120.522	1106.926	290.816	245.170	1139.982	249.551	216.783
247	1.23000	1238.569	1266.093	-474.167	1355.388	1268.361	-524.583	1103.507	1274.205	-501.767	1222.552	1202.777	-593.292	1519.948	1236.492	-465.025	1651.790	1169.761	-506.034	1636.889	1213.309	-433.895	1632.911	1315.322	-508.131	1581.451	1370.135	-616.933	1641.263	1396.440	-589.101	949.116	1234.690	-416.725	791.452	1190.382	-460.899	817.068	1246.207	-394.933	843.859	1326.293	-454.734	860.727	1404.836	-552.217	929.810	1378.990	-543.522	1347.160	734.180	-490.885	1315.775	868.372	-350.739	1394.388	840.134	-446.410	1119.629	729.576	-464.283	1201.953	870.591	-337.234	1089.714	835.104	-441.690	1366.340	501.443	-441.219	1358.708	386.803	-412.747	1397.524	367.516	-375.579	1425.013	522.024	-352.223	1414.181	408.473	-324.289	1397.360	305.911	-306.993	1272.177	309.401	-294.793	1418.741	308.247	-200.837	1423.840	316.000	-78.849	1420.959	385.916	-202.758	1408.711	396.106	-86.267	1419.277	358.624	82.316	1342.598	334.554	81.066	1351.608	427.724	86.932	1421.174	292.995	202.316	1384.147	241.763	186.737	1042.610	546.548	-378.459	1031.127	411.547	-341.365	1052.905	581.082	-264.745	1062.077	445.432	-233.499	1032.906	337.330	-259.127	1161.066	309.962	-262.421	1025.814	320.595	-162.140	1041.966	408.643	-168.807	1049.399	407.386	-48.031	1084.072	374.440	114.944	1158.274	344.390	105.586	1129.213	431.653	120.521	1106.941	290.834	245.188	1140.012	249.619	216.872
